<svg xmlns="http://www.w3.org/2000/svg" aria-hidden="true" style="position:absolute;width:0;height:0;overflow:hidden">
  <defs>
    <symbol id="icon-person-black" viewBox="0 0 32 32">
      <path d="M16 16c2.947 0 5.333-2.387 5.333-5.333S18.946 5.334 16 5.334c-2.947 0-5.333 2.387-5.333 5.333S13.054 16 16 16zm0 2.667c-3.56 0-10.667 1.787-10.667 5.333v1.333c0 .733.6 1.333 1.333 1.333h18.667c.733 0 1.333-.6 1.333-1.333V24c0-3.547-7.107-5.333-10.667-5.333z"/>
    </symbol>
    <symbol id="icon-checkbox" viewBox="0 0 32 32">
      <path fill="#f4f4fd" d="M22.921 8.979c.329-.289.766-.449 1.22-.445s.889.169 1.212.462c.324.293.512.691.524 1.11s-.153.825-.459 1.134l-9.31 10.748c-.16.159-.353.287-.568.376s-.447.136-.682.14-.469-.036-.687-.117a1.767 1.767 0 0 1-.583-.356l-6.174-5.699c-.172-.148-.31-.326-.405-.524s-.147-.412-.151-.629c-.004-.217.039-.432.127-.633s.219-.384.385-.537c.166-.153.364-.274.582-.356s.451-.121.686-.117c.235.004.467.051.681.14s.408.216.568.374l4.886 4.508 8.104-9.531a.521.521 0 0 1 .047-.047h-.002z" style="fill:var(--color1, #f4f4fd)"/>
      <path fill="none" stroke="#2e2f42" stroke-width="2.5" d="M4 1.25h24A2.75 2.75 0 0 1 30.75 4v24A2.75 2.75 0 0 1 28 30.75H4A2.75 2.75 0 0 1 1.25 28V4A2.75 2.75 0 0 1 4 1.25z" style="stroke:var(--color2, #2e2f42)"/>
    </symbol>
    <symbol id="icon-Frame3" viewBox="0 0 32 32">
      <path fill="#fff" d="m32 2.667-32 15 10.227 3.156L26 8.5 14.002 21.988l.01.003-.012-.003v7.345l5.735-5.576L27 25.999l5-23.333z" style="fill:var(--color3, #fff)"/>
    </symbol>
    <symbol id="icon-phone_black" viewBox="0 0 24 32">
      <path d="m19.635 18.487-2.451-.28a1.92 1.92 0 0 0-1.582.55l-1.775 1.775a14.514 14.514 0 0 1-6.359-6.359l1.785-1.785c.415-.415.618-.994.55-1.582l-.28-2.432a1.931 1.931 0 0 0-1.92-1.708H5.934c-1.09 0-1.997.907-1.93 1.997.511 8.24 7.102 14.821 15.332 15.332 1.09.068 1.997-.839 1.997-1.93v-1.669a1.913 1.913 0 0 0-1.698-1.911z"/>
    </symbol>
    <symbol id="icon-email_black" viewBox="0 0 24 32">
      <path d="M20 8H4c-1.1 0-1.99.9-1.99 2L2 22c0 1.1.9 2 2 2h16c1.1 0 2-.9 2-2V10c0-1.1-.9-2-2-2zm-.4 4.25-7.07 4.42c-.32.2-.74.2-1.06 0L4.4 12.25a.85.85 0 1 1 .9-1.44L12 15l6.7-4.19a.85.85 0 1 1 .9 1.44z"/>
    </symbol>
  </defs>
</svg>
